<svg width="34" height="25" viewBox="0 0 34 25" fill="none" xmlns="http://www.w3.org/2000/svg">
<g clip-path="url(#clip0_4_5638)">
<path d="M8.60156 12.0703C10.7812 12.0703 12.6797 10.1016 12.6797 7.55859C12.6797 5.02734 10.7695 3.17578 8.60156 3.17578C6.42188 3.17578 4.51172 5.07422 4.51172 7.58203C4.51172 10.1016 6.41016 12.0703 8.60156 12.0703ZM2.0625 22.6523H15.1172C16.6055 22.6523 17.1797 22.0664 17.1797 21C17.1797 17.7656 13.875 13.8633 8.58984 13.8633C3.30469 13.8633 0 17.7656 0 21C0 22.0664 0.585938 22.6523 2.0625 22.6523Z" fill="#8AD167"/>
<path d="M14.7188 24.2461H29.4492C32.5312 24.2461 33.5391 22.7578 33.5391 21.0938C33.5391 17.1562 29.0273 12.3047 22.0781 12.3047C15.1406 12.3047 10.6289 17.1562 10.6289 21.0938C10.6289 22.7578 11.6367 24.2461 14.7188 24.2461Z" fill="black"/>
<path d="M22.0898 11.8008C24.6094 11.8008 26.7773 9.55078 26.7773 6.62109C26.7773 3.72656 24.5977 1.58203 22.0898 1.58203C19.582 1.58203 17.4023 3.77344 17.4023 6.64453C17.4023 9.55078 19.5703 11.8008 22.0898 11.8008ZM14.7188 22.6523H29.4492C31.2891 22.6523 31.9453 22.125 31.9453 21.0938C31.9453 18.0703 28.1602 13.8984 22.0781 13.8984C16.0078 13.8984 12.2227 18.0703 12.2227 21.0938C12.2227 22.125 12.8789 22.6523 14.7188 22.6523Z" fill="#8AD167"/>
</g>
<defs>
<clipPath id="clip0_4_5638">
<rect width="33.5391" height="24.2461" fill="white"/>
</clipPath>
</defs>
</svg>
