<svg width="48" height="48" viewBox="0 0 48 48" fill="none" xmlns="http://www.w3.org/2000/svg">
<g id="tabbar icons">
<path id="Vector" d="M17.6797 35.5781H31.4727C33.5703 35.5781 34.8008 34.3594 34.8008 31.9453V19.8164C34.8008 17.4023 33.5586 16.1836 31.1211 16.1836H17.6797C15.2305 16.1836 14 17.3906 14 19.8164V31.9453C14 34.3711 15.2305 35.5781 17.6797 35.5781ZM17.7031 33.6914C16.5312 33.6914 15.8867 33.0703 15.8867 31.8516V19.9102C15.8867 18.6914 16.5312 18.0703 17.7031 18.0703H31.0859C32.2461 18.0703 32.9141 18.6914 32.9141 19.9102V31.8516C32.9141 33.0703 32.2461 33.6914 31.4375 33.6914H17.7031ZM19.7773 16.6406L21.6641 16.6523C21.6641 14.9766 22.7656 13.7812 24.3945 13.7812C26.0234 13.7812 27.1367 14.9766 27.1367 16.6523L29.0234 16.6406C29.0234 14.0508 27.0195 12 24.3945 12C21.7695 12 19.7773 14.0508 19.7773 16.6406Z" fill="#858585"/>
</g>
</svg>
