<svg width="27" height="27" viewBox="0 0 27 27" fill="none" xmlns="http://www.w3.org/2000/svg">
<g id="setting-03">
<path id="Subtract" fill-rule="evenodd" clip-rule="evenodd" d="M24.75 13.5C24.75 12.6412 24.2965 11.8595 23.3894 10.296L21.2253 6.56574C20.3218 5.00846 19.87 4.22982 19.1272 3.80241C18.3843 3.375 17.4827 3.375 15.6795 3.375L11.3205 3.375C9.5173 3.375 8.6157 3.375 7.87283 3.80241C7.12995 4.22982 6.67822 5.00846 5.77475 6.56574L3.6106 10.296L3.61059 10.296C2.70353 11.8595 2.25 12.6412 2.25 13.5C2.25 14.3588 2.70353 15.1405 3.61059 16.704L3.61059 16.704L5.77474 20.4343C6.67822 21.9915 7.12995 22.7702 7.87282 23.1976C8.6157 23.625 9.5173 23.625 11.3205 23.625L15.6795 23.625C17.4827 23.625 18.3843 23.625 19.1272 23.1976C19.87 22.7702 20.3218 21.9915 21.2252 20.4343L21.2253 20.4343L23.3894 16.704C24.2965 15.1405 24.75 14.3588 24.75 13.5ZM13.5 17.4375C15.6746 17.4375 17.4375 15.6746 17.4375 13.5C17.4375 11.3254 15.6746 9.5625 13.5 9.5625C11.3254 9.5625 9.5625 11.3254 9.5625 13.5C9.5625 15.6746 11.3254 17.4375 13.5 17.4375Z" fill="#8AD167"/>
</g>
</svg>
