<svg width="24" height="22" viewBox="0 0 24 22" fill="none" xmlns="http://www.w3.org/2000/svg">
<g id="Frame" clip-path="url(#clip0_17_271)">
<g id="Vector" filter="url(#filter0_d_17_271)">
<path d="M5.28516 21.5977H18.1406C20.4492 21.5977 21.6797 20.4023 21.6797 18.1055V5.58984H19.793V18.1992C19.793 19.2539 19.207 19.8281 18.1641 19.8281H5.26172C4.20703 19.8281 3.63281 19.2539 3.63281 18.1992V5.58984H1.74609V18.1055C1.74609 20.4141 2.97656 21.5977 5.28516 21.5977ZM7.85156 11.1914H15.5859C16.0781 11.1914 16.4297 10.8516 16.4297 10.3359V9.96094C16.4297 9.44531 16.0781 9.11719 15.5859 9.11719H7.85156C7.35938 9.11719 7.01953 9.44531 7.01953 9.96094V10.3359C7.01953 10.8516 7.35938 11.1914 7.85156 11.1914ZM2.22656 6.46875H21.1992C22.6406 6.46875 23.4258 5.56641 23.4258 4.13672V2.35547C23.4258 0.925781 22.6406 0.0234375 21.1992 0.0234375H2.22656C0.855469 0.0234375 0 0.925781 0 2.35547V4.13672C0 5.56641 0.785156 6.46875 2.22656 6.46875ZM2.70703 4.69922C2.12109 4.69922 1.88672 4.45312 1.88672 3.86719V2.625C1.88672 2.03906 2.12109 1.79297 2.70703 1.79297H20.7305C21.3164 1.79297 21.5391 2.03906 21.5391 2.625V3.86719C21.5391 4.45312 21.3164 4.69922 20.7305 4.69922H2.70703Z" fill="#858585"/>
<path d="M22.1797 5.58984V5.08984H21.6797H21.3609C21.4899 5.03606 21.6107 4.95842 21.7158 4.84855C21.9787 4.57376 22.0391 4.20451 22.0391 3.86719V2.625C22.0391 2.28768 21.9787 1.91842 21.7158 1.64364C21.4479 1.36357 21.0779 1.29297 20.7305 1.29297H2.70703C2.35919 1.29297 1.98962 1.36372 1.71973 1.63961C1.45232 1.91297 1.38672 2.28222 1.38672 2.625V3.86719C1.38672 4.20997 1.45232 4.57922 1.71973 4.85257C1.82506 4.96024 1.94556 5.03667 2.07404 5.08984H1.74609H1.24609V5.58984V5.7415C1.12639 5.67257 1.02452 5.59033 0.938678 5.49814C0.671338 5.21103 0.5 4.7634 0.5 4.13672V2.35547C0.5 1.73983 0.682744 1.29036 0.961096 0.998246C1.23683 0.708879 1.65417 0.523438 2.22656 0.523438H21.1992C21.8125 0.523438 22.2247 0.712239 22.4871 0.994059C22.7545 1.28117 22.9258 1.72879 22.9258 2.35547V4.13672C22.9258 4.7634 22.7545 5.21102 22.4871 5.49813C22.4013 5.59032 22.2994 5.67255 22.1797 5.74148V5.58984ZM19.293 5.19922V5.58984V5.96875H4.13281V5.58984V5.19922H19.293ZM20.293 18.1992V6.96875H21.1797V18.1055C21.1797 19.168 20.8963 19.8935 20.4254 20.3563C19.953 20.8206 19.2135 21.0977 18.1406 21.0977H5.28516C4.21105 21.0977 3.47181 20.8229 2.99993 20.3603C2.52977 19.8994 2.24609 19.1745 2.24609 18.1055V6.96875H3.13281V18.1992C3.13281 18.8144 3.30155 19.3661 3.69821 19.7627C4.09486 20.1594 4.6465 20.3281 5.26172 20.3281H18.1641C18.7748 20.3281 19.3251 20.1587 19.7222 19.7637C20.1198 19.3682 20.293 18.8171 20.293 18.1992ZM15.5859 10.6914H7.85156C7.72382 10.6914 7.64983 10.6497 7.60801 10.607C7.56564 10.5638 7.51953 10.4818 7.51953 10.3359V9.96094C7.51953 9.81566 7.56512 9.73867 7.60453 9.69926C7.64439 9.6594 7.71872 9.61719 7.85156 9.61719H15.5859C15.7194 9.61719 15.7987 9.65995 15.8424 9.70275C15.8845 9.74405 15.9297 9.82064 15.9297 9.96094V10.3359C15.9297 10.4769 15.8839 10.5584 15.8388 10.6035C15.7933 10.649 15.7144 10.6914 15.5859 10.6914Z" stroke="#858585"/>
</g>
</g>
<defs>
<filter id="filter0_d_17_271" x="-4" y="0.0234375" width="31.4258" height="29.5743" filterUnits="userSpaceOnUse" color-interpolation-filters="sRGB">
<feFlood flood-opacity="0" result="BackgroundImageFix"/>
<feColorMatrix in="SourceAlpha" type="matrix" values="0 0 0 0 0 0 0 0 0 0 0 0 0 0 0 0 0 0 127 0" result="hardAlpha"/>
<feOffset dy="4"/>
<feGaussianBlur stdDeviation="2"/>
<feComposite in2="hardAlpha" operator="out"/>
<feColorMatrix type="matrix" values="0 0 0 0 0 0 0 0 0 0 0 0 0 0 0 0 0 0 0.25 0"/>
<feBlend mode="normal" in2="BackgroundImageFix" result="effect1_dropShadow_17_271"/>
<feBlend mode="normal" in="SourceGraphic" in2="effect1_dropShadow_17_271" result="shape"/>
</filter>
<clipPath id="clip0_17_271">
<rect width="24" height="22" fill="white"/>
</clipPath>
</defs>
</svg>
