<svg width="27" height="27" viewBox="0 0 27 27" fill="none" xmlns="http://www.w3.org/2000/svg">
<g id="setting-03">
<g id="elements">
<path id="Ellipse 1201" d="M17.4375 13.5C17.4375 15.6746 15.6746 17.4375 13.5 17.4375C11.3254 17.4375 9.5625 15.6746 9.5625 13.5C9.5625 11.3254 11.3254 9.5625 13.5 9.5625C15.6746 9.5625 17.4375 11.3254 17.4375 13.5Z" stroke="#858585" stroke-width="2"/>
<path id="Polygon 49" d="M23.3894 10.296C24.2965 11.8595 24.75 12.6412 24.75 13.5C24.75 14.3588 24.2965 15.1405 23.3894 16.704L21.2253 20.4343C20.3218 21.9915 19.87 22.7702 19.1272 23.1976C18.3843 23.625 17.4827 23.625 15.6795 23.625L11.3205 23.625C9.5173 23.625 8.6157 23.625 7.87282 23.1976C7.12995 22.7702 6.67822 21.9915 5.77474 20.4343L3.61059 16.704C2.70353 15.1405 2.25 14.3588 2.25 13.5C2.25 12.6412 2.70353 11.8595 3.6106 10.296L5.77475 6.56574C6.67822 5.00846 7.12995 4.22982 7.87283 3.80241C8.6157 3.375 9.5173 3.375 11.3205 3.375L15.6795 3.375C17.4827 3.375 18.3843 3.375 19.1272 3.80241C19.87 4.22982 20.3218 5.00846 21.2253 6.56574L23.3894 10.296Z" stroke="#858585" stroke-width="2"/>
</g>
</g>
</svg>
